<svg xmlns="http://www.w3.org/2000/svg"
 xmlns:xlink="http://www.w3.org/1999/xlink"
 width="12px" height="21px"  viewBox="0 0 12 21">
<path fill-rule="evenodd"  fill="#c6cacc"
 d="M10.000092,6.8286133 C10.000092,6.8286133 7.2757874,6.8286133 7.2757874,6.8286133 C7.2757874,6.8286133 7.2757874,4.960205 7.2757874,4.960205 C7.2757874,4.258789 7.7200623,4.0949707 8.033417,4.0949707 C8.345764,4.0949707 9.955933,4.0949707 9.955933,4.0949707 C9.955933,4.0949707 9.955933,1.0107422 9.955933,1.0107422 C9.955933,1.0107422 7.3080444,1.0 7.3080444,1.0 C4.368561,1.0 3.699707,3.300537 3.699707,4.772461 C3.699707,4.772461 3.699707,6.8286133 3.699707,6.8286133 C3.699707,6.8286133 1.9999695,6.8286133 1.9999695,6.8286133 C1.9999695,6.8286133 1.9999695,10.006592 1.9999695,10.006592 C1.9999695,10.006592 3.699707,10.006592 3.699707,10.006592 C3.699707,14.085449 3.699707,19.0 3.699707,19.0 C3.699707,19.0 7.2757874,19.0 7.2757874,19.0 C7.2757874,19.0 7.2757874,14.036865 7.2757874,10.006592 C7.2757874,10.006592 9.687744,10.006592 9.687744,10.006592 C9.687744,10.006592 10.000092,6.8286133 10.000092,6.8286133 Z"/>
</svg>